<?xml version="1.0" encoding="utf-8"?>
<!-- Generator: Adobe Illustrator 23.0.0, SVG Export Plug-In . SVG Version: 6.00 Build 0)  -->
<svg version="1.1" id="Capa_1" xmlns="http://www.w3.org/2000/svg" xmlns:xlink="http://www.w3.org/1999/xlink" x="0px" y="0px"
	 viewBox="0 0 496 496" style="enable-background:new 0 0 496 496;" xml:space="preserve">
<style type="text/css">
	.st0{fill:#FDCF84;}
</style>
<g>
	<path class="st0" d="M296,168h9.6c11.7-17.9,16.6-39,13.5-60.8c-5.3-37.2-34.7-67.6-71.7-73.9c-59.2-10.1-110.2,39.4-102.6,98.2
		c4.7,36.9,33.4,67.1,69.8,74.6c17.1,3.6,33.8,1.7,49.4-4.4V200C264,182.3,278.3,168,296,168z"/>
	<rect x="16" y="320" class="st0" width="48" height="168"/>
	<rect x="96" y="368" class="st0" width="48" height="120"/>
	<rect x="176" y="336" class="st0" width="48" height="152"/>
</g>
<path d="M232,96c4.4,0,8,3.6,8,8h16c0-10.4-6.7-19.2-16-22.5V64h-16v17.5c-9.3,3.3-16,12.1-16,22.5c0,13.2,10.8,24,24,24
	c4.4,0,8,3.6,8,8s-3.6,8-8,8s-8-3.6-8-8h-16c0,10.4,6.7,19.2,16,22.5V176h16v-17.5c9.3-3.3,16-12.1,16-22.5c0-13.2-10.8-24-24-24
	c-4.4,0-8-3.6-8-8S227.6,96,232,96z"/>
<polygon points="32,80 48,80 48,48 80,48 80,32 32,32 "/>
<polygon points="48,160 32,160 32,208 80,208 80,192 48,192 "/>
<polygon points="416,80 432,80 432,32 384,32 384,48 416,48 "/>
<path d="M464,160.8V0H0v240h256v216c0,22.1,17.9,40,40,40h160c22.1,0,40-17.9,40-40V200C496,180.7,482.2,164.5,464,160.8z M256,200
	v24H16V16h432v144H296C273.9,160,256,177.9,256,200z M480,456c0,13.2-10.8,24-24,24H296c-13.2,0-24-10.8-24-24V200
	c0-13.2,10.8-24,24-24h160c13.2,0,24,10.8,24,24V456z"/>
<path d="M416,464h48V352h-48V464z M432,368h16v80h-16V368z"/>
<path d="M352,464h48v-48h-48V464z M368,432h16v16h-16V432z"/>
<path d="M288,464h48v-48h-48V464z M304,432h16v16h-16V432z"/>
<path d="M352,400h48v-48h-48V400z M368,368h16v16h-16V368z"/>
<path d="M288,400h48v-48h-48V400z M304,368h16v16h-16V368z"/>
<path d="M352,336h48v-48h-48V336z M368,304h16v16h-16V304z"/>
<path d="M416,336h48v-48h-48V336z M432,304h16v16h-16V304z"/>
<path d="M288,336h48v-48h-48V336z M304,304h16v16h-16V304z"/>
<path d="M288,272h176v-80H288V272z M304,208h144v48H304V208z"/>
<path d="M40,256c-13.2,0-24,10.8-24,24s10.8,24,24,24c5.8,0,11-2.1,15.2-5.6l41.3,24.8c-0.3,1.5-0.5,3.1-0.5,4.8
	c0,13.2,10.8,24,24,24s24-10.8,24-24c0-0.3-0.1-0.6-0.1-0.9l38.2-15.3c4.4,5,10.8,8.2,17.9,8.2c13.2,0,24-10.8,24-24s-10.8-24-24-24
	s-24,10.8-24,24c0,0.3,0.1,0.6,0.1,0.9l-38.2,15.3c-4.4-5-10.8-8.2-17.9-8.2c-5.8,0-11,2.1-15.2,5.6l-41.3-24.8
	c0.3-1.6,0.5-3.1,0.5-4.8C64,266.8,53.2,256,40,256z M200,288c4.4,0,8,3.6,8,8s-3.6,8-8,8s-8-3.6-8-8S195.6,288,200,288z M40,288
	c-4.4,0-8-3.6-8-8s3.6-8,8-8s8,3.6,8,8S44.4,288,40,288z M128,328c0,4.4-3.6,8-8,8s-8-3.6-8-8s3.6-8,8-8S128,323.6,128,328z"/>
<rect y="480" width="240" height="16"/>
<rect x="272" y="112" width="16" height="16"/>
<rect x="176" y="112" width="16" height="16"/>
</svg>
