<?xml version="1.0" encoding="utf-8"?>
<!-- Generator: Adobe Illustrator 23.0.0, SVG Export Plug-In . SVG Version: 6.00 Build 0)  -->
<svg version="1.1" id="Capa_1" xmlns="http://www.w3.org/2000/svg" xmlns:xlink="http://www.w3.org/1999/xlink" x="0px" y="0px"
	 viewBox="0 0 480 480" style="enable-background:new 0 0 480 480;" xml:space="preserve">
<style type="text/css">
	.st0{fill:#59B3C2;}
	.st1{fill:#2A7DB8;}
	.st2{fill:#FDCF84;}
</style>
<g>
	<g>
		<path id="SVGCleanerId_0" class="st0" d="M152,48h176v16H152V48z"/>
	</g>
	<path class="st0" d="M160,152h-40c-4.4,0-8-3.6-8-8v-40c0-4.4,3.6-8,8-8h40c4.4,0,8,3.6,8,8v40C168,148.4,164.4,152,160,152z
		 M128,136h24v-24h-24V136z"/>
	<g>
		<path id="SVGCleanerId_1" class="st0" d="M200,96h168v16H200V96z"/>
	</g>
	<g>
		<path id="SVGCleanerId_2" class="st0" d="M200,128h136v16H200V128z"/>
	</g>
	<path class="st0" d="M160,232h-40c-4.4,0-8-3.6-8-8v-40c0-4.4,3.6-8,8-8h40c4.4,0,8,3.6,8,8v40C168,228.4,164.4,232,160,232z
		 M128,216h24v-24h-24V216z"/>
	<g>
		<path id="SVGCleanerId_3" class="st0" d="M200,176h168v16H200V176z"/>
	</g>
	<g>
		<path id="SVGCleanerId_4" class="st0" d="M200,208h136v16H200V208z"/>
	</g>
	<path class="st0" d="M160,312h-40c-4.4,0-8-3.6-8-8v-40c0-4.4,3.6-8,8-8h40c4.4,0,8,3.6,8,8v40C168,308.4,164.4,312,160,312z
		 M128,296h24v-24h-24V296z"/>
	<g>
		<path id="SVGCleanerId_5" class="st0" d="M200,256h104v16H200V256z"/>
	</g>
	<g>
		<path id="SVGCleanerId_6" class="st0" d="M200,288h72v16h-72V288z"/>
	</g>
	<path class="st0" d="M160,392h-40c-4.4,0-8-3.6-8-8v-40c0-4.4,3.6-8,8-8h40c4.4,0,8,3.6,8,8v40C168,388.4,164.4,392,160,392z
		 M128,376h24v-24h-24V376z"/>
</g>
<g>
	<path class="st1" d="M138.3,122.3l40-40l11.3,11.3l-40,40L138.3,122.3z"/>
	<path class="st1" d="M138.3,202.3l40-40l11.3,11.3l-40,40L138.3,202.3z"/>
	<path class="st1" d="M138.3,282.3l40-40l11.3,11.3l-40,40L138.3,282.3z"/>
	<path class="st1" d="M138.3,362.4l40-40l11.3,11.3l-40,40L138.3,362.4z"/>
</g>
<g>
	<path class="st0" d="M200,336h72v16h-72V336z"/>
	<path class="st0" d="M200,368h136v16H200V368z"/>
</g>
<path class="st2" d="M460,172c-6.6-6.6-17.4-6.6-24,0l-28,28L304,304l-8,32l32-8l80-80l52-52C466.6,189.4,466.6,178.6,460,172z"/>
<path class="st1" d="M418.3,189.7l11.3-11.3l24,24l-11.3,11.3L418.3,189.7z"/>
<path d="M440,0H104C81.9,0,64,17.9,64,40v376H8c-4.4,0-8,3.6-8,8v16c0,22.1,17.9,40,40,40h336c22.1,0,40-17.9,40-40V251.3l49.7-49.7
	c9.8-9.8,9.8-25.6,0-35.3c-9.8-9.8-25.6-9.8-35.3,0L416,180.7V64h56c4.4,0,8-3.6,8-8V40C480,17.9,462.1,0,440,0z M40,464
	c-13.3,0-24-10.7-24-24v-8h320v8c0,2.5,0.3,5,0.8,7.4c0.1,0.8,0.4,1.5,0.6,2.2c0.4,1.6,0.9,3.2,1.5,4.8c0.3,0.8,0.6,1.6,1,2.3
	c0.7,1.5,1.5,2.9,2.3,4.2c0.4,0.7,0.8,1.4,1.3,2c0.2,0.3,0.4,0.7,0.6,1H40z M400,440c0,13.3-10.7,24-24,24s-24-10.7-24-24v-16
	c0-4.4-3.6-8-8-8H80V40c0-13.3,10.7-24,24-24h304c-0.2,0.3-0.4,0.7-0.6,1c-0.5,0.6-0.9,1.3-1.3,2c-0.9,1.4-1.6,2.8-2.3,4.2
	c-0.4,0.8-0.7,1.5-1,2.3c-0.6,1.6-1.1,3.2-1.5,4.8c-0.2,0.7-0.4,1.5-0.6,2.2c-0.5,2.4-0.7,4.9-0.7,7.4v156.7L298.3,298.3
	c-1,1-1.8,2.3-2.1,3.7l-8,32c-0.7,2.7,0.1,5.6,2.1,7.6c0.7,0.6,1.5,1.2,2.3,1.5c0.2,0.1,0.4,0.2,0.6,0.3c0.9,0.3,1.8,0.5,2.7,0.5h0
	c0.7,0,1.3-0.1,1.9-0.2l32-8c1.4-0.4,2.7-1.1,3.7-2.1l66.3-66.3V440z M441.7,177.7c3.5-3.4,9.1-3.4,12.7,0c3.5,3.5,3.5,9.2,0,12.7
	l-6.3,6.3L435.3,184L441.7,177.7z M424,195.3l12.7,12.7L323.9,320.8L307,325l4.2-16.9L424,195.3z M464,48h-48v-8
	c0-13.3,10.7-24,24-24s24,10.7,24,24V48z"/>
<path id="SVGCleanerId_0_1_" d="M152,48h176v16H152V48z"/>
<path d="M163.7,97c-1.1-0.6-2.4-1-3.7-1h-40c-4.4,0-8,3.6-8,8v40c0,4.4,3.6,8,8,8h40c4.4,0,8-3.6,8-8v-28.7l21.7-21.7l-11.3-11.3
	L163.7,97z M152,136h-24v-24h20.7l-10.3,10.3l11.3,11.3l2.3-2.3V136z"/>
<path id="SVGCleanerId_1_1_" d="M200,96h168v16H200V96z"/>
<path id="SVGCleanerId_2_1_" d="M200,128h136v16H200V128z"/>
<path d="M163.7,177c-1.1-0.6-2.4-1-3.7-1h-40c-4.4,0-8,3.6-8,8v40c0,4.4,3.6,8,8,8h40c4.4,0,8-3.6,8-8v-28.7l21.7-21.7l-11.3-11.3
	L163.7,177z M152,216h-24v-24h20.7l-10.3,10.3l11.3,11.3l2.3-2.3V216z"/>
<path id="SVGCleanerId_3_1_" d="M200,176h168v16H200V176z"/>
<path id="SVGCleanerId_4_1_" d="M200,208h136v16H200V208z"/>
<path d="M163.7,257c-1.1-0.6-2.4-1-3.7-1h-40c-4.4,0-8,3.6-8,8v40c0,4.4,3.6,8,8,8h40c4.4,0,8-3.6,8-8v-28.7l21.7-21.7l-11.3-11.3
	L163.7,257z M152,296h-24v-24h20.7l-10.3,10.3l11.3,11.3l2.3-2.3V296z"/>
<path id="SVGCleanerId_5_1_" d="M200,256h104v16H200V256z"/>
<path id="SVGCleanerId_6_1_" d="M200,288h72v16h-72V288z"/>
<path d="M163.7,337c-1.1-0.6-2.4-1-3.7-1h-40c-4.4,0-8,3.6-8,8v40c0,4.4,3.6,8,8,8h40c4.4,0,8-3.6,8-8v-28.7l21.7-21.7l-11.3-11.3
	L163.7,337z M152,376h-24v-24h20.7l-10.3,10.3l11.3,11.3l2.3-2.3V376z"/>
<path d="M200,336h72v16h-72V336z"/>
<path d="M200,368h136v16H200V368z"/>
</svg>
