<?xml version="1.0" encoding="utf-8"?>
<!-- Generator: Adobe Illustrator 23.0.0, SVG Export Plug-In . SVG Version: 6.00 Build 0)  -->
<svg version="1.1" id="Capa_1" xmlns="http://www.w3.org/2000/svg" xmlns:xlink="http://www.w3.org/1999/xlink" x="0px" y="0px"
	 viewBox="0 0 59.9 59.9" style="enable-background:new 0 0 59.9 59.9;" xml:space="preserve">
<style type="text/css">
	.st0{fill:#FFFFFF;}
</style>
<path class="st0" d="M59.6,23.4c-0.2-0.3-0.6-0.4-1-0.4H56V8.7c0-1-0.8-1.8-1.8-1.8H23.6l-2.5-4.1C20.8,2.3,20.2,2,19.6,2H5.8
	C4.8,2,4,2.7,4,3.7V23H1.3c-0.4,0-0.7,0.2-1,0.4C0.1,23.7,0,24,0,24.4L2.2,39l0,0l2.1,14l0,0l0.6,3.9C5,57.5,5.6,58,6.2,58h47.5
	c0.6,0,1.2-0.5,1.3-1.1l0.6-3.9h0l2.1-14l0,0l2.2-14.5C60,24,59.8,23.7,59.6,23.4z M6,4h13.4l2.5,4.1C22.2,8.6,22.8,9,23.4,9H54v14
	h-1v-4h-1v-3h-1v-3H9v3H8v3H7v4H6V4z M9,21h42v2H9V21z M10,18h40v1H10V18z M49,16H11v-1h38V16z M53.9,51h-5.5l6.5-6.5L53.9,51z
	 M55.3,41.1L45.5,51h-5.2l10-10h5L55.3,41.1z M37.5,51h-5.2l10-10h5.2L37.5,51z M29.5,51h-5.2l10-10h5.2L29.5,51z M21.5,51h-5.2
	l10-10h5.2L21.5,51z M13.5,51H8.3l10-10h5.2L13.5,51z M6,50.5l-0.5-3.6l5.9-5.9h4.2L6,50.5z M5.1,44.4l-0.4-2.5L4.5,41h4L5.1,44.4z
	 M53.1,56H6.8l-0.5-3h47.2L53.1,56z M55.7,39H4.2L2.1,25H4h3h46h3h1.8L55.7,39z"/>
</svg>
