<?xml version="1.0" encoding="utf-8"?>
<!-- Generator: Adobe Illustrator 23.0.0, SVG Export Plug-In . SVG Version: 6.00 Build 0)  -->
<svg version="1.1" id="Capa_1" xmlns="http://www.w3.org/2000/svg" xmlns:xlink="http://www.w3.org/1999/xlink" x="0px" y="0px"
	 viewBox="0 0 480 480" style="enable-background:new 0 0 480 480;" xml:space="preserve">
<style type="text/css">
	.st0{fill:#FFFFFF;}
</style>
<path class="st0" d="M480,240c0-33.9-23.6-63.2-56.7-70.4C415.4,68.4,327.1-7.3,225.8,0.6c-90.3,7-162.1,78.7-169.1,169.1
	c-13.5,3-25.9,9.7-35.7,19.5C-7,217.3-7,262.8,21.2,290.9c10.7,10.6,24.4,17.7,39.2,20.1c1.1,0.6,2.4,1,3.6,1c0.5,0,1-0.1,1.5-0.2
	c0.2,0,0.4-0.1,0.6-0.2c1.9,0.2,3.9,0.4,5.9,0.4h16c4.4,0,8-3.6,8-8V176c0-4.4-3.6-8-8-8H73C81.6,75.8,163.4,8,255.7,16.6
	C336,24.1,399.6,87.7,407.1,168H392c-4.4,0-8,3.6-8,8v128c0,4.4,3.6,8,8,8h16v16c0,61.7-48.2,108.6-113.2,111.7
	c-4.6-17-22.2-27.1-39.2-22.4c-17,4.6-27.1,22.2-22.4,39.2s22.2,27.1,39.2,22.4c11.2-3,19.9-11.9,22.6-23.2c74-3.2,129-57,129-127.7
	v-17.8c13.2-3.1,25.3-9.7,35-19.2C472.5,277.4,480.1,259.1,480,240z M80,296c0,0-12.7-0.1-15-0.4c-30.7-3.7-52.6-31.7-48.8-62.4
	c3.1-25.6,23.4-45.8,49-48.8C67.4,184.2,80,184,80,184V296z M264,464c-8.8,0-16-7.2-16-16s7.2-16,16-16s16,7.2,16,16
	S272.9,464,264,464z M415.1,295.6c-2.3,0.3-15,0.4-15,0.4V184c0,0,12.6,0.1,14.9,0.4c30.7,3.8,52.5,31.8,48.7,62.5
	c-1.5,12.4-7.1,23.9-15.9,32.7C438.9,288.4,427.4,294,415.1,295.6z"/>
</svg>
