<?xml version="1.0" encoding="utf-8"?>
<!-- Generator: Adobe Illustrator 23.0.0, SVG Export Plug-In . SVG Version: 6.00 Build 0)  -->
<svg version="1.1" id="Capa_1" xmlns="http://www.w3.org/2000/svg" xmlns:xlink="http://www.w3.org/1999/xlink" x="0px" y="0px"
	 viewBox="0 0 58.4 58.4" style="enable-background:new 0 0 58.4 58.4;" xml:space="preserve">
<style type="text/css">
	.st0{fill:#FFFFFF;}
</style>
<path class="st0" d="M57.9,26.6L29.2,0L0.5,26.6c-0.4,0.4-0.4,1-0.1,1.4c0.4,0.4,1,0.4,1.4,0.1L5.2,25v33.3h16h16h16V25l3.3,3.1
	c0.2,0.2,0.4,0.3,0.7,0.3c0.3,0,0.5-0.1,0.7-0.3C58.3,27.6,58.3,27,57.9,26.6z M23.2,56.4v-16c0-3.3,2.7-6,6-6s6,2.7,6,6v16H23.2z
	 M51.2,56.4h-14v-16c0-4.4-3.6-8-8-8s-8,3.6-8,8v16h-14V23.2l22-20.4l22,20.4V56.4z"/>
</svg>
