<?xml version="1.0" encoding="utf-8"?>
<!-- Generator: Adobe Illustrator 23.0.0, SVG Export Plug-In . SVG Version: 6.00 Build 0)  -->
<svg version="1.1" id="Capa_1" xmlns="http://www.w3.org/2000/svg" xmlns:xlink="http://www.w3.org/1999/xlink" x="0px" y="0px"
	 viewBox="0 0 29.5 29.5" style="enable-background:new 0 0 29.5 29.5;" xml:space="preserve">
<style type="text/css">
	.st0{fill:#FFFFFF;}
</style>
<g>
	<path class="st0" d="M14.8,0C6.6,0,0,6.6,0,14.8c0,8.2,6.6,14.8,14.8,14.8s14.8-6.6,14.8-14.8C29.5,6.6,22.9,0,14.8,0z M14.8,27.1
		c-6.8,0-12.4-5.5-12.4-12.4c0-6.8,5.5-12.4,12.4-12.4c6.8,0,12.4,5.5,12.4,12.4C27.1,21.6,21.6,27.1,14.8,27.1z"/>
	<path class="st0" d="M14.4,19.3c-1.3,0-2.3,1-2.3,2.3c0,1.3,0.9,2.3,2.3,2.3c1.4,0,2.3-1,2.3-2.3C16.7,20.3,15.8,19.3,14.4,19.3z"
		/>
	<path class="st0" d="M14.7,6.1c-1.8,0-3.3,0.5-4.3,1.1l0.9,2.8C12,9.5,13,9.2,13.9,9.2c1.3,0,1.9,0.6,1.9,1.5
		c0,0.9-0.7,1.7-1.5,2.7c-1.2,1.4-1.6,2.7-1.5,4l0,0.7h3.4v-0.5c0-1.2,0.4-2.2,1.3-3.2c1-1.1,2.2-2.4,2.2-4.3
		C19.7,8,18.1,6.1,14.7,6.1z"/>
</g>
</svg>
